<?xml version="1.0" encoding="utf-8"?>
<!-- Generator: Adobe Illustrator 19.2.1, SVG Export Plug-In . SVG Version: 6.00 Build 0)  -->
<svg version="1.1" id="Layer_1" xmlns="http://www.w3.org/2000/svg" xmlns:xlink="http://www.w3.org/1999/xlink" x="0px" y="0px"
	 viewBox="0 0 43 43" style="enable-background:new 0 0 43 43;" xml:space="preserve">
<style type="text/css">
	.st0{fill:none;}
	.st1{fill:#FFFFFF;}
</style>
<path id="XMLID_1_" class="st0" d="M21.8,18.3c-7.3,2.8-12.8,3-15.9,2.8c0,0.3,0,0.6,0,0.9c0,3.9,1.4,7.4,3.7,10.2
	c1.8-2.9,6.1-8.6,13.8-10.7C22.8,20.3,22.3,19.3,21.8,18.3z M34.2,11.7c-3.3,2.2-6.4,3.9-9.2,5.3c0.7,1.3,1.3,2.6,1.8,3.8
	c3.2-0.4,6.9-0.2,11.2,0.9C37.9,17.8,36.5,14.4,34.2,11.7z M24.6,24.2c-4.5,1.3-9.3,4.1-12.8,10.1c2.8,2.3,6.3,3.6,10.2,3.6
	c2.3,0,4.5-0.5,6.5-1.4C27.6,32.3,26.2,28,24.6,24.2z M27.9,23.6c2.2,5.8,3.1,10.3,3.3,11.4c3.5-2.5,6-6.4,6.6-10.8
	C35.9,23.8,32.2,23.1,27.9,23.6z M21.9,6c-1.3,0-2.6,0.2-3.8,0.5c2.2,2.6,4,5.4,5.5,8.1c4.2-2,6.9-4.1,8.2-5.2
	C29.1,7.3,25.7,6,21.9,6z M15.1,7.5c-4.3,2-7.6,5.9-8.7,10.7c4.1,0,9.5-0.7,14.1-2.3C18.3,12.1,16.3,9.2,15.1,7.5z M21.8,18.3
	c-7.3,2.8-12.8,3-15.9,2.8c0,0.3,0,0.6,0,0.9c0,3.9,1.4,7.4,3.7,10.2c1.8-2.9,6.1-8.6,13.8-10.7C22.8,20.3,22.3,19.3,21.8,18.3z
	 M34.2,11.7c-3.3,2.2-6.4,3.9-9.2,5.3c0.7,1.3,1.3,2.6,1.8,3.8c3.2-0.4,6.9-0.2,11.2,0.9C37.9,17.8,36.5,14.4,34.2,11.7z M24.6,24.2
	c-4.5,1.3-9.3,4.1-12.8,10.1c2.8,2.3,6.3,3.6,10.2,3.6c2.3,0,4.5-0.5,6.5-1.4C27.6,32.3,26.2,28,24.6,24.2z M27.9,23.6
	c2.2,5.8,3.1,10.3,3.3,11.4c3.5-2.5,6-6.4,6.6-10.8C35.9,23.8,32.2,23.1,27.9,23.6z M21.9,6c-1.3,0-2.6,0.2-3.8,0.5
	c2.2,2.6,4,5.4,5.5,8.1c4.2-2,6.9-4.1,8.2-5.2C29.1,7.3,25.7,6,21.9,6z M15.1,7.5c-4.3,2-7.6,5.9-8.7,10.7c4.1,0,9.5-0.7,14.1-2.3
	C18.3,12.1,16.3,9.2,15.1,7.5z"/>
<path class="st1" d="M21.9,2C10.9,2,1.9,11,1.9,22s9,20,20.1,20S42,33,42,22S33,2,21.9,2z M38,21.6c-4.3-1.1-8-1.3-11.2-0.9
	c-0.5-1.2-1.1-2.5-1.8-3.8c2.9-1.3,6-3,9.2-5.3C36.5,14.4,37.9,17.8,38,21.6z M21.9,6c3.7,0,7.2,1.3,9.9,3.4c-1.3,1.1-4,3.2-8.2,5.2
	c-1.5-2.7-3.4-5.5-5.5-8.1C19.3,6.2,20.6,6,21.9,6z M15.1,7.5c1.2,1.6,3.3,4.6,5.4,8.4c-4.6,1.7-10.1,2.4-14.1,2.3
	C7.5,13.5,10.8,9.6,15.1,7.5z M5.9,22c0-0.3,0-0.6,0-0.9c3.1,0.2,8.6,0.1,15.9-2.8c0.5,1,1,2,1.5,3.1c-7.8,2.2-12,7.8-13.8,10.7
	C7.3,29.4,5.9,25.9,5.9,22z M21.9,38c-3.9,0-7.4-1.4-10.2-3.6c3.6-6,8.3-8.9,12.8-10.1c1.6,3.8,3,8,3.8,12.4
	C26.4,37.5,24.2,38,21.9,38z M31.3,35c-0.2-1.2-1.1-5.7-3.3-11.4c4.2-0.5,7.9,0.2,9.9,0.6C37.2,28.7,34.8,32.5,31.3,35z"/>
</svg>
