<svg version="1.1" xmlns="http://www.w3.org/2000/svg" xmlns:xlink="http://www.w3.org/1999/xlink" width="19" height="19"><defs/><g><path fill="rgb(255,255,255)" stroke="none" paint-order="stroke fill markers" fill-rule="evenodd" d=" M 15.246925830841064 12.135808825492859 C 17.565401077270508 9.817403614521027 17.565401077270508 6.045016050338745 15.246925830841064 3.7264384031295776 C 12.928405284881592 1.4078607559204102 9.155996322631836 1.4078607559204102 6.837521076202393 3.7264384031295776 C 4.902098655700684 5.661690294742584 4.582736968994141 8.610177516937256 5.878484725952148 10.88030058145523 C 5.878484725952148 10.88030058145523 2.4507598876953125 14.307988107204437 2.4507598876953125 14.307988107204437 C 1.844606876373291 14.914101481437683 1.844606876373291 15.896988034248352 2.4507598876953125 16.503101408481598 C 2.4507598876953125 16.503101408481598 2.4701480865478516 16.52275913953781 2.4701480865478516 16.52275913953781 C 3.0763463973999023 17.128872513771057 4.059255599975586 17.128872513771057 4.665408611297607 16.52275913953781 C 4.665408611297607 16.52275913953781 8.093088150024414 13.09489917755127 8.093088150024414 13.09489917755127 C 10.363274097442627 14.390757501125336 13.311594009399414 14.0712331533432 15.246925830841064 12.135808825492859 Z M 8.221648216247559 10.751663148403168 C 6.666424751281738 9.196460723876953 6.666424751281738 6.665958940982819 8.221648216247559 5.110584080219269 C 9.776916980743408 3.555209219455719 12.30748462677002 3.555209219455719 13.86275339126587 5.110584080219269 C 15.418067455291748 6.665958940982819 15.418067455291748 9.196460723876953 13.86275339126587 10.751663148403168 C 12.30748462677002 12.307038009166718 9.776916980743408 12.307038009166718 8.221648216247559 10.751663148403168 Z"/></g></svg>