<svg version="1.1" xmlns="http://www.w3.org/2000/svg" xmlns:xlink="http://www.w3.org/1999/xlink" width="47" height="44"><defs/><g><path fill="rgb(255,255,255)" stroke="none" paint-order="stroke fill markers" fill-rule="evenodd" d=" M 45.794830322265625 5.666491150856018 C 45.794830322265625 5.666491150856018 41.78276062011719 9.666350841522217 41.78276062011719 9.666350841522217 C 41.78276062011719 9.666350841522217 41.78276062011719 9.303918242454529 41.78276062011719 10.33310329914093 C 41.78276062011719 11.064144730567932 41.66481018066406 11.762433409690857 41.49383544921875 12.440602540969849 C 41.40037536621094 17.9433456659317 39.64225769042969 25.2402845621109 32.42134094238281 30.99971568584442 C 18.217315673828125 42.32870554924011 2.999725341796875 32.33312702178955 2.999725341796875 32.33312702178955 C 15.035858154296875 32.33312702178955 15.035858154296875 28.33298659324646 15.035858154296875 28.33298659324646 C 12.36114501953125 28.33298659324646 7.0117950439453125 22.99980914592743 7.0117950439453125 22.99980914592743 C 8.349075317382812 24.333033323287964 11.02386474609375 22.99980914592743 11.02386474609375 22.99980914592743 C 4.337005615234375 18.99966871738434 4.337005615234375 14.99980902671814 4.337005615234375 14.99980902671814 C 5.6744384765625 16.333033204078674 8.349075317382812 14.99980902671814 8.349075317382812 14.99980902671814 C 1.6623687744140625 9.666350841522217 5.6744384765625 2.9996684789657593 5.6744384765625 2.9996684789657593 C 7.0117950439453125 9.666350841522217 24.39727783203125 12.333079934120178 24.39727783203125 12.333079934120178 C 24.39727783203125 12.333079934120178 24.618453979492188 12.222749948501587 24.618453979492188 12.222749948501587 C 24.482040405273438 11.612987279891968 24.39727783203125 10.317288398742676 24.39727783203125 9.666350841522217 C 24.39727783203125 4.87995719909668 28.289108276367188 1.6663507223129272 33.08998107910156 1.6663507223129272 C 35.732421875 1.6663507223129272 38.0706787109375 2.866973042488098 39.66484069824219 4.722276091575623 C 39.66484069824219 4.722276091575623 40.44548034667969 4.333079814910889 40.44548034667969 4.333079814910889 C 40.44548034667969 4.333079814910889 44.457550048828125 1.6663507223129272 44.457550048828125 1.6663507223129272 C 44.457550048828125 1.6663507223129272 41.78276062011719 6.999715328216553 41.78276062011719 6.999715328216553 C 41.78276062011719 6.999715328216553 45.794830322265625 5.666491150856018 45.794830322265625 5.666491150856018 Z"/></g></svg>